<svg xmlns="http://www.w3.org/2000/svg" xmlns:xlink="http://www.w3.org/1999/xlink" viewBox="0 0 203.02 189.19"><defs><style>.cls-1{fill:#333;}.cls-2{fill:url(#linear-gradient);}.cls-3{fill:#fff;}</style><linearGradient id="linear-gradient" x1="-802.51" y1="-716.48" x2="-803.38" y2="-715.82" gradientTransform="matrix(107.6, 0, 0, -107.6, 86490.86, -76967.46)" gradientUnits="userSpaceOnUse"><stop offset="0" stop-color="#39c6f4"/><stop offset="1" stop-color="#4c3494"/></linearGradient></defs><title>Asset 10</title><g id="Layer_2" data-name="Layer 2"><g id="Layer_1-2" data-name="Layer 1"><path class="cls-1" d="M22.37,107.52a6.41,6.41,0,0,1-1.38-.15l-3.86-.84a1,1,0,0,1,.43-2l3.86.84a3.72,3.72,0,0,0,4.67-3.65c0-1.14-.42-2.79-4.13-3.92-1.38-.43-5.56-1.74-5.54-5.85a5.69,5.69,0,0,1,7.43-5.43l3.58,1a1,1,0,1,1-.55,1.92l-3.58-1a3.82,3.82,0,0,0-4.41,1.68A3.86,3.86,0,0,0,18.42,92c0,1.82,1.26,3,4.13,3.93,3.69,1.13,5.55,3.09,5.54,5.85a5.84,5.84,0,0,1-2.16,4.51A5.59,5.59,0,0,1,22.37,107.52Z"/><path class="cls-1" d="M22.31,88.17h0a1,1,0,0,1-1-1l0-4.45a1,1,0,0,1,1-1h0a1,1,0,0,1,1,1l0,4.45A1,1,0,0,1,22.31,88.17Z"/><path class="cls-1" d="M22.18,112.06h0a1,1,0,0,1-1-1l0-4.45a1,1,0,0,1,1-1h0a1,1,0,0,1,1,1l0,4.45A1,1,0,0,1,22.18,112.06Z"/><path class="cls-1" d="M96.6,174.53a80.15,80.15,0,0,1-73.06-47.36,1,1,0,0,1,1.83-.82,78,78,0,0,0,139.25,6.4l-13.38,5a1,1,0,0,1-.7-1.87L166.41,130a1,1,0,0,1,1.24,1.4A79.81,79.81,0,0,1,96.6,174.53Z"/><path class="cls-1" d="M24.93,35.23a1,1,0,0,1-.76-1.64A94,94,0,0,1,89.45,0a1,1,0,0,1,1.07.92A1,1,0,0,1,89.6,2,92,92,0,0,0,25.7,34.87,1,1,0,0,1,24.93,35.23Z"/><path class="cls-1" d="M102,189.19a1,1,0,0,1-.05-2,92.35,92.35,0,0,0,62.31-28.9,1,1,0,0,1,1.45,1.38A94.34,94.34,0,0,1,102,189.18Z"/><path class="cls-1" d="M176,123a27,27,0,1,1,27-27A27.05,27.05,0,0,1,176,123Zm0-52a25,25,0,1,0,25,25A25,25,0,0,0,176,70.93Z"/><path class="cls-1" d="M22.42,118.37A22.42,22.42,0,1,1,44.84,95.95,22.44,22.44,0,0,1,22.42,118.37Zm0-42.84A20.42,20.42,0,1,0,42.84,95.95,20.44,20.44,0,0,0,22.42,75.53Z"/><path class="cls-1" d="M170.52,147.92a1,1,0,0,1-1-.77l-3.76-16a1,1,0,1,1,1.95-.46l3.76,16a1,1,0,0,1-.75,1.2Z"/><path class="cls-1" d="M23.54,65.39a1,1,0,0,1-.91-.59L16.46,51a1,1,0,1,1,1.83-.81L23.52,61.9a80,80,0,0,1,144.94-2.58,1,1,0,1,1-1.79.88A78,78,0,0,0,24.46,64.77a1,1,0,0,1-.91.62Z"/><path class="cls-1" d="M23.54,65.39a1,1,0,0,1-.41-1.91c2.26-1,13.59-6,14.65-6.27a1,1,0,0,1,.46,1.95c-.83.22-9.2,3.89-14.29,6.15A1,1,0,0,1,23.54,65.39Z"/><path class="cls-1" d="M168.77,109.37a1,1,0,0,1-1-1l-.13-13.06a1,1,0,0,1,1-1l15.3-.15a4.1,4.1,0,0,1,4.14,4.06l.07,6.86a4.11,4.11,0,0,1-4.06,4.14h0l-15.3.15Zm15.3-1.15h0ZM169.65,96.3l.11,11.06,14.3-.14h0a2.1,2.1,0,0,0,2.08-2.12l-.07-6.86a2.1,2.1,0,0,0-2.1-2.08h0Z"/><path class="cls-1" d="M168.64,96.31a1,1,0,0,1-1-1l-.11-11.08a1,1,0,0,1,1-1l12.18-.12h0a3.63,3.63,0,0,1,3.63,3.59l.06,5.82a3.63,3.63,0,0,1-3.6,3.67l-12.18.12Zm.9-11.09.09,9.08,11.18-.11a1.63,1.63,0,0,0,1.62-1.65l-.06-5.82a1.63,1.63,0,0,0-1.63-1.61h0Zm11.17-1.11h0Z"/><path class="cls-1" d="M164.47,85.27a1,1,0,0,1,0-2l4.05,0h0a1,1,0,0,1,0,2l-4.05,0Z"/><path class="cls-1" d="M164.71,109.41a1,1,0,0,1,0-2l4.05,0h0a1,1,0,0,1,0,2l-4.05,0Z"/><path class="cls-1" d="M171.35,85.21a1,1,0,0,1-1-1l0-4a1,1,0,0,1,1-1,1,1,0,0,1,1,1l0,4a1,1,0,0,1-1,1Z"/><path class="cls-1" d="M175.89,85.17a1,1,0,0,1-1-1l0-4a1,1,0,0,1,1-1h0a1,1,0,0,1,1,1l0,4a1,1,0,0,1-1,1Z"/><path class="cls-1" d="M171.63,113.36a1,1,0,0,1-1-1l0-4a1,1,0,0,1,1-1h0a1,1,0,0,1,1,1l0,4a1,1,0,0,1-1,1Z"/><path class="cls-1" d="M176.17,113.32a1,1,0,0,1-1-1l0-4a1,1,0,0,1,1-1h0a1,1,0,0,1,1,1l0,4a1,1,0,0,1-1,1Z"/><g id="Group_516" data-name="Group 516"><path id="Rectangle_192" data-name="Rectangle 192" class="cls-2" d="M96.59,52.39h0A42.39,42.39,0,0,1,139,94.78h0a42.39,42.39,0,0,1-42.39,42.39h0A42.39,42.39,0,0,1,54.19,94.78h0A42.39,42.39,0,0,1,96.59,52.39Z"/><path class="cls-3" d="M88.69,119.09c-9.48,0-17.19-9.93-17.19-22.15S79.21,74.8,88.69,74.8s17.19,9.93,17.19,22.15S98.17,119.09,88.69,119.09Zm0-42.29c-8.38,0-15.19,9-15.19,20.15s6.82,20.15,15.19,20.15,15.19-9,15.19-20.15S97.07,76.8,88.69,76.8Z"/><path class="cls-3" d="M113.84,82a3.86,3.86,0,1,1,3.86-3.86A3.86,3.86,0,0,1,113.84,82Zm0-5.72a1.86,1.86,0,1,0,1.86,1.86A1.86,1.86,0,0,0,113.84,76.32Z"/><path class="cls-3" d="M124.6,93.56a3.86,3.86,0,1,1,3.86-3.86A3.86,3.86,0,0,1,124.6,93.56Zm0-5.71a1.86,1.86,0,1,0,1.86,1.86A1.86,1.86,0,0,0,124.6,87.85Z"/><path class="cls-3" d="M112.79,93a1,1,0,0,1-.78-1.63l13.15-16.29a1,1,0,0,1,1.56,1.26L113.57,92.62A1,1,0,0,1,112.79,93Z"/></g></g></g></svg>